# xmcd CD database file
#
# Track frame offsets:
#	150
#	25127
#	65309
#	98581
#	128782
#	169746
#	207270
#
# Disc length: 3175 seconds
#
# Revision: 0
# Processed by: cddbd v1.5.2PL0 Copyright (c) Steve Scherf et al.
# Submitted via: CDex 2.14
#
DISCID=540c6507
DTITLE=Walt Weiskopf - European Quartet
DYEAR=2017
DGENRE=Jazz
TTITLE0=KMA (feat. Carl Winther, Daniel Franck, Anders Mogensen)
TTITLE1=Gates of Madrid (feat. Carl Winther, Daniel Franck, Anders Mogensen)
TTITLE2=Wizard (feat. Carl Winther, Daniel Franck, Anders Mogensen)
TTITLE3=See the Pyramid (feat. Carl Winther, Daniel Franck, Anders Mogensen)
TTITLE4=Darth (feat. Carl Winther, Daniel Franck, Anders Mogensen)
TTITLE5=Soul Eyes (feat. Carl Winther, Daniel Franck, Anders Mogensen)
TTITLE6=Bolivia (feat. Carl Winther, Daniel Franck, Anders Mogensen)
EXTD=YEAR: 2017
EXTT0=
EXTT1=
EXTT2=
EXTT3=
EXTT4=
EXTT5=
EXTT6=
PLAYORDER=
